<?xml version="1.0" encoding="UTF-8" standalone="no"?>
<!-- Filename: fafaa92c113eb603a7110d68abcf68dfb25c2471f22996e2913fd935c9d54757.svg -->

<!-- Created with https://svgstud.io -->

<svg
   version="1.1"
   viewBox="0 0 1024 1024"
   width="1024"
   height="1024"
   role="img"
   aria-labelledby="titleID descID"
   id="svg1"
   xmlns="http://www.w3.org/2000/svg"
   xmlns:svg="http://www.w3.org/2000/svg"
   xmlns:rdf="http://www.w3.org/1999/02/22-rdf-syntax-ns#"
   xmlns:cc="http://creativecommons.org/ns#"
   xmlns:dc="http://purl.org/dc/elements/1.1/">
  <defs
     id="defs1" />
  <title
     id="titleID">Make it holding an animal</title>
  <desc
     id="descID">AI-generated SVG illustration: Make it holding an animal, created on https://svgstud.io</desc>
  <metadata
     id="copyright">
    Created by https://svgstud.io and licensed under CC-BY-SA 4.0 license. Please attribute https://svgstud.io
  </metadata>
  <metadata
     id="prompt">
    Make it holding an animal
  </metadata>
  <metadata
     id="version">
    7
  </metadata>
  <metadata
     id="metadata1">
    <rdf:RDF>
      <cc:Work
         rdf:about="">
        <cc:license
           rdf:resource="http://creativecommons.org/licenses/by-sa/4.0/" />
        <dc:creator>
          <cc:Agent>
            <dc:title>https://svgstud.io</dc:title>
          </cc:Agent>
        </dc:creator>
      </cc:Work>
      <cc:License
         rdf:about="http://creativecommons.org/licenses/by-sa/4.0/">
        <cc:permits
           rdf:resource="http://creativecommons.org/ns#Reproduction" />
        <cc:permits
           rdf:resource="http://creativecommons.org/ns#Distribution" />
        <cc:requires
           rdf:resource="http://creativecommons.org/ns#Notice" />
        <cc:requires
           rdf:resource="http://creativecommons.org/ns#Attribution" />
        <cc:permits
           rdf:resource="http://creativecommons.org/ns#DerivativeWorks" />
        <cc:requires
           rdf:resource="http://creativecommons.org/ns#ShareAlike" />
      </cc:License>
    </rdf:RDF>
  </metadata>
  <metadata
     id="uid">fafaa92c113eb603a7110d68abcf68dfb25c2471f22996e2913fd935c9d54757</metadata>
  <path
     stroke="none"
     fill="black"
     fill-rule="evenodd"
     d="m 448,926.38 c -5.23,0.26 -15.12,-0.13 -22,-0.87 -6.88,-0.75 -18.35,-2.54 -25.5,-3.98 -7.15,-1.44 -17.68,-3.96 -23.39,-5.61 -5.71,-1.64 -14.17,-4.55 -18.79,-6.47 -4.62,-1.91 -11.65,-3.9 -15.61,-4.43 -3.97,-0.52 -11.03,-1.44 -15.71,-2.05 -4.68,-0.6 -13,-2.2 -18.5,-3.56 -5.5,-1.35 -14.73,-4.03 -20.5,-5.94 -5.77,-1.91 -11.96,-4.37 -13.75,-5.46 -1.79,-1.09 -3.25,-2.64 -3.25,-3.46 0,-0.81 0.98,-2.39 2.18,-3.51 1.21,-1.12 6.84,-3.85 12.53,-6.08 5.69,-2.22 16.06,-5.6 23.06,-7.51 7,-1.9 17.46,-4.54 23.23,-5.85 6.55,-1.48 10.87,-2.03 11.49,-1.44 0.55,0.51 1.28,5.22 1.61,10.46 0.45,6.84 1.08,9.99 2.25,11.16 1.51,1.51 1.74,1.48 3.06,-0.33 0.79,-1.07 1.71,-3.3 2.05,-4.95 0.34,-1.65 1.07,-9.08 1.62,-16.5 0.55,-7.42 0.71,-18.45 0.34,-24.5 -0.36,-6.05 -1.69,-15.05 -2.94,-20 -1.25,-4.95 -4.29,-13.73 -6.76,-19.5 -2.47,-5.77 -5.92,-14.99 -7.68,-20.49 -1.75,-5.49 -4.73,-16.29 -6.63,-24 -1.89,-7.7 -4.07,-18.06 -4.84,-23.01 -0.77,-4.95 -2,-13.95 -2.73,-20 -0.83,-6.93 -1.31,-22.47 -1.3,-42 0.01,-23.61 0.43,-34.44 1.79,-45.42 0.98,-7.93 2.2,-15.2 2.71,-16.15 0.51,-0.95 4.26,-3.56 8.34,-5.8 4.08,-2.24 10.95,-6.76 15.27,-10.04 4.32,-3.29 9.87,-7.76 12.35,-9.93 2.48,-2.18 4.19,-4.27 3.82,-4.66 -0.37,-0.38 -2.62,0.62 -5,2.22 -2.38,1.6 -6.37,4.08 -8.87,5.52 -2.5,1.44 -9.08,4.88 -14.62,7.65 -5.54,2.76 -13.62,6.45 -17.95,8.18 -4.34,1.73 -12.15,4.43 -17.38,5.99 -5.23,1.56 -12.65,3.53 -16.5,4.38 -3.85,0.84 -12.31,2.22 -18.8,3.05 -6.49,0.83 -18.11,1.51 -25.81,1.51 -7.7,0 -17.19,-0.49 -21.07,-1.1 -3.89,-0.6 -9.55,-1.95 -12.6,-3 -3.04,-1.04 -7.08,-3.08 -8.98,-4.53 -1.9,-1.45 -4.08,-4.13 -4.85,-5.97 -0.76,-1.83 -1.39,-5.08 -1.39,-7.21 0,-2.31 1.22,-6.32 3.04,-9.96 1.67,-3.34 6.34,-9.83 10.37,-14.41 4.02,-4.57 9.97,-10.8 13.2,-13.84 3.24,-3.03 12.64,-11.78 20.89,-19.43 8.25,-7.65 17.48,-16.2 20.5,-18.99 3.02,-2.8 10.68,-9.59 17,-15.1 6.32,-5.51 14.65,-12.73 18.5,-16.05 3.85,-3.32 14.2,-11.89 23,-19.04 8.8,-7.16 21.01,-16.9 27.13,-21.65 6.13,-4.75 12.54,-10.41 14.25,-12.57 1.71,-2.16 4.69,-7.25 6.61,-11.3 1.93,-4.05 4.67,-11.86 6.11,-17.36 2.06,-7.91 2.61,-12.39 2.63,-21.49 0.01,-8.11 -0.89,-17.28 -3.08,-31.08 -1.71,-10.77 -3.59,-24.95 -4.18,-31.5 -0.58,-6.56 -1.07,-18.44 -1.09,-26.42 -0.01,-8.5 0.66,-19.04 1.62,-25.47 0.91,-6.03 2.93,-15.93 4.5,-22 1.57,-6.06 4.4,-14.65 6.29,-19.07 1.9,-4.42 4.46,-10.04 5.7,-12.5 1.24,-2.45 4.3,-7.61 6.81,-11.46 2.51,-3.85 7.69,-10.73 11.52,-15.29 3.83,-4.56 9.71,-10.67 13.07,-13.57 3.36,-2.91 8.89,-7.39 12.29,-9.97 3.4,-2.58 9.93,-6.83 14.5,-9.45 4.58,-2.62 13.05,-6.95 18.82,-9.61 5.77,-2.67 14.58,-5.88 19.57,-7.15 4.99,-1.27 13.77,-2.85 19.5,-3.52 6.44,-0.75 15.78,-0.99 24.43,-0.61 7.7,0.33 18.05,1.32 23,2.2 4.95,0.87 13.73,3.15 19.5,5.06 5.77,1.91 15.55,5.93 21.71,8.94 7.04,3.43 15.66,8.81 23.15,14.45 6.57,4.94 15.18,12.48 19.13,16.75 3.95,4.27 10.07,12.08 13.58,17.34 3.52,5.27 8.41,13.87 10.86,19.11 2.45,5.25 5.42,12.39 6.59,15.88 1.17,3.48 3.18,11.08 4.46,16.89 1.29,5.8 3.15,15.73 4.15,22.05 1.36,8.57 1.81,16.97 1.79,33 -0.03,18.81 -0.3,22.46 -2.17,29.18 -1.17,4.22 -3.55,11.07 -5.28,15.23 -1.73,4.16 -5.35,11.24 -8.05,15.73 -2.7,4.49 -6.82,10.59 -9.16,13.56 -2.35,2.96 -5.05,6.61 -6,8.1 -0.96,1.48 -1.75,3.53 -1.75,4.53 -0.01,1.01 1.37,5.27 3.05,9.47 1.68,4.2 3.48,8.14 4,8.77 0.69,0.84 3.24,0.22 9.43,-2.26 4.67,-1.88 11.53,-4.05 15.25,-4.84 3.72,-0.79 10.89,-1.44 15.94,-1.45 5.06,-0.01 12.33,0.64 16.16,1.45 3.83,0.8 9.98,2.67 13.65,4.14 3.68,1.47 9.91,4.79 13.85,7.38 3.94,2.58 9.5,7.19 12.35,10.23 2.86,3.05 7.24,8.71 9.75,12.58 2.51,3.88 5.92,10.43 7.57,14.57 1.66,4.13 3.74,11.03 4.63,15.32 1.18,5.72 1.47,10.75 1.06,18.81 -0.3,6.05 -1.18,13.33 -1.96,16.19 -1.41,5.19 -1.41,5.19 5.49,12 3.79,3.74 9.12,9.8 11.85,13.45 2.72,3.66 6.48,9.97 8.36,14.02 1.87,4.05 4.17,11.17 5.12,15.82 1.26,6.25 1.56,11.04 1.13,18.48 -0.32,5.52 -1.43,12.74 -2.48,16.04 -1.04,3.3 -2.93,8.02 -4.2,10.5 -1.26,2.48 -5.5,7.67 -9.4,11.55 -3.91,3.88 -9.72,8.51 -12.91,10.29 -3.18,1.77 -9.71,4.54 -14.5,6.13 -4.78,1.6 -11.62,3.36 -15.2,3.92 -3.58,0.56 -8.57,1.28 -11.09,1.6 -4.59,0.59 -4.59,0.59 -5.22,22.8 -0.35,12.21 -1.33,27.61 -2.19,34.21 -0.86,6.6 -2.64,16.5 -3.95,22 -1.32,5.5 -4.19,15.17 -6.39,21.5 -2.19,6.33 -5.19,14.39 -6.66,17.93 -1.46,3.54 -8.48,18.08 -15.58,32.31 -7.11,14.23 -12.92,26.98 -12.92,28.33 0,1.81 0.86,2.84 3.25,3.91 1.79,0.79 9.33,3.77 16.75,6.63 7.42,2.85 17.1,6.98 21.5,9.17 4.4,2.2 10.56,5.73 13.69,7.85 3.13,2.12 8.35,6.33 11.62,9.35 3.26,3.02 7.54,7.86 9.51,10.76 1.97,2.89 3.86,6.43 4.2,7.85 0.53,2.22 -0.16,3.3 -4.66,7.34 -2.9,2.61 -7.45,5.85 -10.12,7.2 -2.67,1.35 -8.99,3.31 -14.05,4.35 -5.05,1.04 -13.69,2.34 -19.19,2.89 -6.64,0.66 -11.51,1.74 -14.5,3.21 -4.45,2.19 -4.8,2.21 -30.5,1.34 -14.3,-0.48 -29.83,-0.84 -34.5,-0.8 -6.41,0.05 -11.83,0.95 -22,3.65 -7.42,1.97 -17.55,4.13 -22.5,4.81 -5.33,0.72 -22.11,1.27 -41.16,1.34 -32.15,0.11 -32.15,0.11 -37.58,5.25 -2.98,2.82 -7.64,6.25 -10.34,7.61 -2.71,1.37 -7.85,3.39 -11.42,4.49 -3.57,1.1 -10.77,2.71 -16,3.56 -5.23,0.86 -13.77,1.78 -19,2.05 z m 28.83,-21.36 c 0.2,-0.6 -0.76,-2.53 -2.13,-4.3 -1.37,-1.77 -4,-4.86 -5.85,-6.87 -1.84,-2.01 -5.1,-4.83 -7.24,-6.25 -2.14,-1.43 -4.7,-2.6 -5.69,-2.6 -0.99,0 -2.1,0.49 -2.47,1.08 -0.37,0.6 0.62,2.44 2.19,4.1 1.57,1.67 6.9,5.93 11.84,9.48 4.94,3.55 9.15,5.96 9.35,5.36 z m 4.16,-25.25 c 1.37,-0.15 2.62,-0.96 2.78,-1.8 0.16,-0.84 -1.16,-3.72 -2.93,-6.39 -1.77,-2.68 -6.28,-7.98 -10.03,-11.78 -4.8,-4.86 -8.82,-7.85 -13.57,-10.08 -5.88,-2.77 -7.82,-3.17 -15.22,-3.19 -6.92,-0.03 -8.53,0.26 -8.79,1.54 -0.18,0.94 0.82,2.08 2.48,2.82 1.53,0.68 7.17,3.73 12.52,6.77 5.35,3.04 12.78,8.35 16.5,11.8 3.73,3.45 8.35,7.24 10.27,8.42 1.93,1.19 4.62,2.04 5.99,1.89 z m 202.26,-9.78 c 0.41,0.01 0.75,-0.29 0.75,-0.65 0,-0.36 -1.79,-2.98 -3.98,-5.82 -2.19,-2.83 -5.41,-6.43 -7.16,-7.98 -1.74,-1.56 -5.01,-3.89 -7.27,-5.17 -2.25,-1.29 -5.08,-2.35 -6.28,-2.36 -1.21,0 -2.43,0.37 -2.72,0.84 -0.28,0.46 0.75,2.06 2.3,3.55 1.55,1.48 7.5,6.05 13.22,10.14 5.71,4.09 10.73,7.45 11.14,7.45 z m 37,-2.03 c 0.41,0.02 0.75,-0.22 0.75,-0.54 0,-0.32 -1.62,-3.02 -3.6,-6 -1.98,-2.98 -5.69,-7.27 -8.25,-9.52 -2.56,-2.26 -6.39,-5 -8.52,-6.08 -2.44,-1.25 -4.22,-1.63 -4.82,-1.03 -0.59,0.59 -0.09,1.91 1.37,3.56 1.28,1.45 6.82,6.44 12.32,11.1 5.5,4.66 10.34,8.49 10.75,8.51 z m 22.5,-6.07 c 0.69,0.06 1.25,-0.27 1.25,-0.74 0,-0.47 -1.28,-2.62 -2.85,-4.78 -1.56,-2.16 -5.05,-5.89 -7.75,-8.29 -2.69,-2.4 -7.31,-5.47 -10.25,-6.84 -4.37,-2.02 -5.78,-2.27 -7.75,-1.38 -1.32,0.6 -2.4,1.51 -2.4,2.01 0,0.5 0.84,1.94 1.86,3.21 1.03,1.27 7.44,5.55 14.25,9.51 6.82,3.96 12.95,7.25 13.64,7.3 z M 544.1,860.63 c 18.38,-0.1 23.96,-0.43 25.25,-1.5 0.91,-0.76 1.65,-2.81 1.65,-4.56 0,-1.75 -0.61,-4.02 -1.36,-5.04 -1.3,-1.79 -1.77,-1.8 -13.25,-0.18 -9.02,1.27 -19.2,1.67 -42.14,1.66 -16.64,0 -30.25,0.38 -30.25,0.85 0,0.47 2.76,2.33 6.13,4.13 5.57,2.97 7.23,3.33 18.25,4.02 6.67,0.41 22.74,0.69 35.72,0.62 z m -9.6,-21.28 c 8.8,-0.27 21.82,-1.16 28.93,-2 7.12,-0.84 16.79,-2.62 21.5,-3.96 4.71,-1.34 15.77,-5.99 24.57,-10.33 8.8,-4.35 20.73,-11.02 26.5,-14.82 5.77,-3.81 14.19,-10.26 18.71,-14.33 4.52,-4.08 11.05,-10.57 14.52,-14.44 3.48,-3.87 8.45,-9.8 11.05,-13.19 2.61,-3.39 6.91,-9.67 9.56,-13.97 2.65,-4.29 6.25,-10.86 8,-14.58 1.75,-3.73 4.51,-11.51 6.13,-17.29 1.62,-5.78 3.84,-15.56 4.92,-21.73 1.07,-6.16 2.22,-13.23 2.53,-15.71 0.32,-2.48 1.02,-11.64 1.56,-20.37 0.55,-8.73 0.73,-16.29 0.41,-16.8 -0.31,-0.52 -4.47,2.81 -9.23,7.39 -4.76,4.58 -11.81,10.4 -15.66,12.93 -3.85,2.54 -9.25,5.74 -12,7.11 -2.75,1.37 -9.27,4.08 -14.5,6.02 -5.23,1.94 -13.85,4.47 -19.16,5.61 -5.31,1.14 -15.66,2.77 -23,3.63 -7.34,0.85 -14.35,1.77 -15.59,2.03 -1.9,0.41 -2.25,1.14 -2.26,4.72 0,2.33 -0.48,7.15 -1.06,10.73 -0.57,3.58 -2.09,9.52 -3.38,13.22 -1.28,3.69 -4.39,9.6 -6.91,13.13 -2.52,3.53 -6.69,7.82 -9.28,9.53 -3.45,2.29 -5.86,3.12 -9.03,3.12 -2.96,0 -4.95,-0.62 -6.28,-1.95 -1.07,-1.07 -2.4,-3.66 -2.96,-5.75 -0.56,-2.09 -1.72,-8.53 -2.58,-14.3 -0.86,-5.77 -1.81,-11.29 -2.1,-12.25 -0.3,-0.96 -1.11,-1.75 -1.8,-1.75 -0.7,0 -5.35,1.77 -10.34,3.93 -4.98,2.17 -10.98,4.45 -13.33,5.09 -2.34,0.63 -5.78,0.86 -7.65,0.51 -2.36,-0.45 -3.98,-1.61 -5.33,-3.83 -1.27,-2.08 -1.95,-5.01 -1.96,-8.34 0,-2.83 0.9,-8.08 2.01,-11.65 1.1,-3.58 3.83,-9.23 6.05,-12.56 2.23,-3.33 6.38,-8.17 9.24,-10.75 2.86,-2.58 8.94,-7.18 13.5,-10.23 8.31,-5.54 8.31,-5.54 7.5,-13.61 -0.44,-4.43 -0.77,-15.48 -0.74,-24.56 0.03,-9.08 0.61,-19.58 1.29,-23.34 0.68,-3.76 2.33,-10.29 3.67,-14.5 1.33,-4.21 4.57,-11.38 7.2,-15.92 2.63,-4.54 7.18,-10.96 10.1,-14.26 2.93,-3.31 10.8,-10.59 17.5,-16.18 6.7,-5.59 13.87,-11.95 15.95,-14.12 2.07,-2.18 4.04,-5.06 4.38,-6.41 0.35,-1.4 -0.61,-7.26 -2.23,-13.61 -2.48,-9.76 -2.83,-12.91 -2.77,-25.16 0.06,-11 0.54,-15.7 2.22,-21.93 1.18,-4.37 3.6,-11.12 5.38,-15 1.79,-3.89 5.39,-9.92 8.01,-13.39 4.77,-6.33 4.77,-6.33 2.62,-9.35 -1.69,-2.38 -2.7,-2.92 -4.76,-2.54 -1.44,0.27 -6.3,2.13 -10.81,4.14 -4.5,2.01 -12.6,4.84 -18,6.29 -9.34,2.5 -11.03,2.63 -35.31,2.69 -20.53,0.06 -27.55,-0.29 -36,-1.77 -5.77,-1.01 -12.81,-2.07 -15.63,-2.35 -5.12,-0.52 -5.12,-0.52 -12.88,6.85 -4.27,4.05 -10.53,10.96 -13.91,15.36 -3.39,4.4 -8.21,11.15 -10.73,15 -2.51,3.85 -7.3,12.18 -10.65,18.5 -3.34,6.32 -8.4,16.65 -11.23,22.95 -2.84,6.3 -7.55,17.33 -10.47,24.5 -2.92,7.18 -8.03,21.15 -11.36,31.05 -3.32,9.9 -7.85,24.98 -10.05,33.5 -2.2,8.52 -4.91,20.14 -6.03,25.81 -1.13,5.68 -3.15,17.38 -4.51,26 -1.36,8.63 -3.04,20.86 -3.73,27.19 -0.74,6.72 -1.27,24.81 -1.29,43.5 -0.03,27.56 0.22,33.11 1.81,40 1.01,4.4 3.44,11.83 5.4,16.5 1.96,4.67 5.9,12.1 8.75,16.5 2.86,4.4 7.31,10.34 9.9,13.21 2.6,2.86 7.51,7.41 10.91,10.11 3.41,2.7 9.82,7 14.25,9.56 4.43,2.56 12.31,6.18 17.53,8.04 5.21,1.87 13.97,4.35 19.45,5.52 5.48,1.17 14.24,2.52 19.47,3 5.23,0.49 16.7,0.67 25.5,0.41 z M 573.71,736 c 0.88,0 3.28,-1.77 5.34,-3.93 2.05,-2.16 4.93,-6.38 6.4,-9.38 1.47,-3 3.34,-7.87 4.16,-10.82 0.81,-2.95 1.74,-11.89 2.06,-19.87 0.32,-7.98 0.95,-15.17 1.39,-16 0.63,-1.18 1.03,-0.9 1.85,1.28 0.59,1.52 1.75,3.03 2.59,3.36 0.84,0.32 6.13,0.04 11.76,-0.63 5.63,-0.67 16.17,-2.29 23.41,-3.6 7.24,-1.32 16.86,-3.56 21.38,-4.99 4.52,-1.42 11.51,-4.09 15.54,-5.93 4.03,-1.83 10.51,-5.4 14.41,-7.92 3.9,-2.52 11.11,-8.47 16.04,-13.22 4.93,-4.75 8.96,-9.04 8.96,-9.52 0,-0.49 -0.56,-1.04 -1.25,-1.22 -0.69,-0.18 -3.73,-1.13 -6.75,-2.1 -3.02,-0.97 -7.57,-3.07 -10.11,-4.65 -2.53,-1.59 -5.41,-3.78 -6.4,-4.87 -0.99,-1.1 -2.16,-1.99 -2.6,-1.99 -0.44,0 -2.24,2.11 -4.02,4.68 -1.77,2.58 -5.2,6.59 -7.62,8.91 -2.42,2.31 -6.98,5.59 -10.14,7.27 -3.15,1.68 -7.62,3.36 -9.94,3.73 -2.88,0.46 -5.52,0.16 -8.43,-0.96 -2.69,-1.03 -5.15,-2.97 -6.72,-5.28 -2.31,-3.39 -2.55,-4.9 -3.3,-20.75 -0.45,-9.41 -0.81,-19.41 -0.8,-22.24 0.01,-3.28 0.91,-7.18 2.49,-10.75 1.36,-3.09 2.93,-5.61 3.48,-5.61 0.62,0 0.78,2.56 0.44,6.75 -0.3,3.71 -0.03,9.45 0.62,12.75 0.64,3.3 1.44,12.26 1.76,19.9 0.5,11.68 0.9,14.21 2.44,15.75 1.13,1.13 3.29,1.85 5.53,1.85 2.03,0 5.71,-0.98 8.18,-2.18 2.48,-1.19 7.04,-4.76 10.15,-7.91 3.11,-3.16 7.26,-8.82 9.23,-12.58 1.97,-3.76 4.63,-10.21 5.92,-14.33 2.04,-6.53 2.34,-9.54 2.34,-23.25 0,-8.66 0.35,-15.75 0.79,-15.75 0.43,0 1.7,2.14 2.83,4.75 1.13,2.61 2.3,7.11 2.61,10 0.3,2.89 0.83,5.25 1.17,5.25 0.34,0 2.64,-2.54 5.11,-5.64 2.47,-3.1 7.33,-8.06 10.81,-11.01 3.47,-2.95 8.92,-7.14 12.11,-9.3 3.19,-2.17 9.34,-5.73 13.68,-7.91 4.34,-2.19 9.14,-4.29 10.67,-4.67 1.52,-0.39 3.19,-1.47 3.69,-2.41 0.5,-0.94 1.22,-4.04 1.6,-6.89 0.38,-2.84 0.46,-5.17 0.19,-5.17 -0.27,0 -3.42,1.96 -6.99,4.35 -3.57,2.4 -7.9,4.85 -9.63,5.45 -1.73,0.6 -3.14,0.97 -3.14,0.81 0,-0.16 3.82,-4.16 8.48,-8.89 4.67,-4.73 10.3,-11.41 12.52,-14.84 2.22,-3.43 4.97,-9.19 6.13,-12.81 1.29,-4.05 2.29,-10.49 2.61,-16.79 0.42,-8.33 0.11,-12.01 -1.7,-19.83 -1.36,-5.9 -3.99,-13.15 -6.81,-18.78 -3.73,-7.46 -6.19,-10.76 -13.16,-17.69 -6.35,-6.32 -10.51,-9.49 -16.07,-12.26 -4.12,-2.05 -11.06,-4.63 -15.41,-5.73 -5.06,-1.27 -11.18,-1.98 -17,-1.97 -5,0.01 -12.2,0.67 -16.01,1.48 -3.81,0.81 -11.17,3.53 -16.36,6.06 -7.55,3.67 -10.99,6.13 -17.2,12.26 -6.19,6.13 -8.57,9.39 -11.81,16.18 -2.22,4.68 -4.85,12.1 -5.84,16.5 -1.21,5.42 -1.78,12.03 -1.76,20.5 0.02,8.73 0.57,14.46 1.8,19 0.96,3.57 2.96,8.75 4.42,11.5 1.47,2.75 6.21,8.54 10.54,12.86 7.59,7.56 7.76,7.83 4.51,7.15 -1.86,-0.39 -5.18,-1.7 -7.38,-2.91 -2.2,-1.21 -5.14,-2.95 -6.53,-3.87 -2.52,-1.67 -2.55,-1.65 -7.5,4.12 -2.73,3.19 -8.72,8.91 -13.3,12.72 -4.58,3.81 -12.23,11.02 -17,16.01 -4.77,5 -10.17,11.61 -12,14.69 -1.84,3.08 -4.63,8.78 -6.21,12.67 -1.58,3.89 -3.61,10.33 -4.51,14.31 -0.9,4.01 -1.87,14.18 -2.17,22.75 -0.33,9.21 -0.04,21.18 0.72,29.5 0.69,7.7 1.05,14.9 0.8,16 -0.42,1.8 -0.59,1.73 -1.79,-0.75 -0.73,-1.51 -2.05,-2.75 -2.92,-2.75 -0.88,0 -5.57,2.99 -10.43,6.64 -4.87,3.65 -10.87,9.16 -13.35,12.25 -2.47,3.08 -5.56,7.94 -6.86,10.79 -1.3,2.85 -2.66,7.45 -3.03,10.23 -0.53,3.97 -0.36,5.18 0.79,5.62 0.81,0.31 6.74,-1.67 13.17,-4.4 6.44,-2.72 12.76,-5.64 14.04,-6.49 1.42,-0.93 2.61,-2.98 3.04,-5.26 0.38,-2.05 1.42,-5.53 2.3,-7.73 1.31,-3.29 1.71,-3.66 2.26,-2.09 0.37,1.05 0.76,4.61 0.87,7.92 0.12,3.31 1.08,10.21 2.14,15.34 1.06,5.13 2.65,13.43 3.52,18.45 0.87,5.02 1.8,9.49 2.07,9.93 0.28,0.44 1.22,0.8 2.09,0.8 z M 777.82,541.76 c 0.18,-1.62 -0.83,-4.84 -2.45,-7.83 -1.52,-2.79 -4.88,-6.84 -7.46,-9 -2.58,-2.16 -5.19,-3.93 -5.8,-3.93 -0.61,0 -1.11,0.73 -1.11,1.63 0,0.89 1.46,3.28 3.25,5.3 1.79,2.02 5.5,6.57 8.25,10.12 4.76,6.14 5.02,6.32 5.32,3.71 z M 698.07,526 c -2.57,0 -5.61,-0.69 -6.85,-1.56 -1.22,-0.85 -2.22,-2.04 -2.22,-2.63 0,-0.7 1.68,-0.84 4.92,-0.42 3.22,0.43 6.24,0.18 8.75,-0.73 2.11,-0.77 4.66,-1.74 5.68,-2.17 1.47,-0.62 1.78,-0.39 1.49,1.08 -0.19,1.02 -1.88,2.89 -3.74,4.14 -2.32,1.57 -4.86,2.29 -8.03,2.29 z M 681.9,516 c -3.14,0 -5.69,-0.73 -8,-2.28 -2.23,-1.5 -3.51,-3.23 -3.72,-5.03 -0.32,-2.74 -0.32,-2.74 2.17,-0.25 1.36,1.36 3.68,2.78 5.15,3.15 1.48,0.37 4.39,0.16 6.48,-0.47 2.2,-0.65 5.32,-2.82 7.41,-5.13 1.99,-2.2 3.61,-4.41 3.61,-4.92 0,-0.51 -1.1,-1.75 -2.45,-2.75 -1.34,-1 -4.27,-2.92 -6.49,-4.27 -2.23,-1.34 -4.3,-3.24 -4.61,-4.21 -0.31,-0.97 -0.1,-2.63 0.47,-3.68 0.56,-1.06 2.84,-2.65 5.07,-3.54 2.34,-0.94 6.91,-1.62 10.83,-1.62 3.94,0 7.28,0.5 7.98,1.2 0.66,0.66 1.2,2.16 1.2,3.34 0,1.17 -1.8,4.65 -4,7.72 -2.2,3.07 -4,6.18 -3.99,6.91 0,0.73 1.46,2.29 3.25,3.46 1.78,1.18 4.49,2.43 6.03,2.78 1.53,0.36 4.54,0.18 6.67,-0.4 2.21,-0.59 5.01,-2.37 6.47,-4.11 1.98,-2.35 2.7,-2.71 3.14,-1.57 0.32,0.82 -0.14,2.88 -1.02,4.57 -0.87,1.69 -2.62,3.76 -3.89,4.58 -1.26,0.83 -4.31,1.78 -6.78,2.12 -3.44,0.48 -5.73,0.09 -9.73,-1.63 -5.22,-2.25 -5.22,-2.25 -7.44,-0.21 -1.21,1.11 -3.79,2.98 -5.71,4.13 -2.2,1.32 -5.21,2.1 -8.1,2.11 z m -26.36,-21.02 c -1.12,-0.01 -3.88,-0.86 -6.14,-1.88 -2.41,-1.1 -5,-3.33 -6.3,-5.44 -1.47,-2.38 -2.23,-5.22 -2.25,-8.49 -0.02,-2.69 0.7,-6.33 1.6,-8.08 0.91,-1.75 3.09,-4.06 4.85,-5.13 2.05,-1.25 5.01,-1.95 8.22,-1.96 3.67,0 5.98,0.65 8.6,2.44 1.98,1.34 4.38,4.1 5.35,6.14 1.21,2.54 1.6,5.1 1.25,8.18 -0.27,2.46 -1.36,5.65 -2.42,7.1 -1.05,1.45 -3.9,3.65 -6.32,4.89 -2.42,1.24 -5.32,2.24 -6.44,2.23 z m 72.96,-11.99 c -2.2,0.01 -5.57,-0.78 -7.48,-1.74 -1.91,-0.96 -4.5,-3.28 -5.75,-5.15 -1.62,-2.42 -2.27,-4.85 -2.27,-8.5 0.01,-3.29 0.7,-6.23 1.96,-8.3 1.07,-1.75 3.15,-3.98 4.62,-4.95 1.66,-1.08 4.68,-1.77 7.97,-1.8 3.85,-0.04 6.06,0.51 8.06,2.01 1.52,1.14 3.69,3.3 4.81,4.8 1.51,2.02 2.05,4.26 2.05,8.51 0,3.86 -0.6,6.67 -1.79,8.5 -0.98,1.5 -3.23,3.6 -4.98,4.67 -1.76,1.08 -5,1.95 -7.2,1.95 z M 654.08,478 c 0.92,0 2.21,-0.65 2.87,-1.44 0.66,-0.8 1.06,-2.49 0.88,-3.75 -0.22,-1.52 -1.12,-2.42 -2.64,-2.64 -1.26,-0.18 -2.95,0.22 -3.75,0.88 -0.79,0.66 -1.44,1.95 -1.44,2.87 0,0.93 0.54,2.22 1.2,2.88 0.66,0.66 1.95,1.2 2.88,1.2 z m 69.91,-11.21 c 2.15,-0.25 2.51,-0.8 2.51,-3.79 0,-2.89 -0.4,-3.56 -2.31,-3.83 -1.26,-0.18 -2.95,0.22 -3.75,0.88 -0.79,0.66 -1.44,1.95 -1.44,2.87 0,0.93 0.56,2.24 1.24,2.92 0.69,0.69 2.37,1.11 3.75,0.95 z m -69.57,-13.25 c -1.61,0.61 -3.67,0.94 -4.58,0.73 -0.92,-0.21 -1.93,-1.06 -2.24,-1.88 -0.33,-0.85 0.47,-2.55 1.86,-3.95 1.35,-1.34 3.54,-2.44 4.87,-2.44 1.33,0 3.02,0.71 3.74,1.58 0.94,1.13 1.02,2.05 0.29,3.22 -0.57,0.89 -2.34,2.13 -3.94,2.74 z m 66.48,-10.49 c -1.35,0.36 -3.47,0.28 -4.7,-0.17 -1.23,-0.46 -2.52,-1.55 -2.86,-2.43 -0.34,-0.88 0.01,-2.22 0.77,-2.96 0.77,-0.75 2.54,-1.64 3.95,-1.99 1.78,-0.43 3.31,-0.01 5,1.38 1.96,1.6 2.23,2.34 1.36,3.76 -0.59,0.96 -2.18,2.05 -3.52,2.41 z M 564,421.5 c 14.74,-0.26 20.23,-0.76 27,-2.45 4.67,-1.17 11.81,-3.77 15.86,-5.76 4.05,-2 9.69,-5.77 12.55,-8.38 3.48,-3.18 6.38,-7.16 8.79,-12.08 1.98,-4.03 6.63,-11.15 10.33,-15.83 3.7,-4.68 8.41,-10.98 10.46,-14 2.06,-3.02 5.39,-8.78 7.41,-12.79 2.01,-4.01 5.09,-11.43 6.83,-16.5 3.17,-9.21 3.17,-9.21 3.57,-34.26 0.32,-20.38 0.08,-26.73 -1.27,-34 -0.96,-5.17 -3.1,-11.95 -5.06,-16.06 -1.88,-3.91 -5.44,-9.36 -7.92,-12.13 -2.48,-2.76 -6.05,-5.75 -7.93,-6.64 -1.88,-0.89 -4.91,-1.62 -6.72,-1.62 -2.71,0 -4.32,1.05 -9.01,5.87 -3.83,3.93 -7.03,8.63 -9.74,14.25 -2.22,4.61 -4.99,11.76 -6.15,15.88 -1.16,4.12 -2.37,11.65 -2.7,16.72 -0.44,6.92 -0.26,9.63 0.74,10.83 0.73,0.88 3.03,2.46 5.1,3.52 2.08,1.06 4.02,1.93 4.32,1.93 0.3,0 0.55,-3.71 0.56,-8.25 0.01,-4.54 0.46,-11.31 1,-15.04 0.54,-3.74 1.94,-8.69 3.1,-11 1.16,-2.32 2.85,-5.04 3.74,-6.06 0.9,-1.02 2.96,-2.54 4.58,-3.38 1.61,-0.83 4.93,-1.48 7.37,-1.43 2.44,0.05 5.49,0.78 6.77,1.62 1.28,0.84 3.31,2.54 4.5,3.78 1.19,1.24 3.2,4.51 4.46,7.26 1.26,2.75 2.58,7.7 2.94,11 0.35,3.3 0.15,9.15 -0.45,13 -0.6,3.85 -2.19,9.25 -3.52,12.01 -1.4,2.9 -3.69,5.76 -5.45,6.8 -2.17,1.28 -4.03,1.6 -6.55,1.13 -2.26,-0.43 -3.51,-0.28 -3.51,0.42 0,0.6 2.71,3.23 6.02,5.86 3.31,2.63 6.28,5.74 6.58,6.92 0.31,1.18 -0.11,3.43 -0.94,5 -0.83,1.57 -4.76,6.46 -8.73,10.86 -3.98,4.4 -9.82,11.47 -12.99,15.71 -3.16,4.24 -9.6,13.47 -14.29,20.5 -4.7,7.04 -10.62,15.23 -13.17,18.21 -2.54,2.98 -6.28,6.73 -8.3,8.34 -2.03,1.61 -5.26,3.61 -7.18,4.45 -2.11,0.93 -6.49,1.55 -11,1.56 -5.18,0.01 -9.34,-0.65 -13.46,-2.13 -3.28,-1.17 -8.45,-3.77 -11.5,-5.77 -3.05,-1.99 -10.73,-8.86 -17.08,-15.25 -6.88,-6.93 -13.77,-15.05 -17.07,-20.12 -3.05,-4.68 -7.76,-11.8 -10.47,-15.82 -2.7,-4.03 -5.76,-8.66 -6.78,-10.28 -1.86,-2.96 -1.86,-2.96 1.74,-6.35 1.98,-1.87 5.52,-4.22 7.86,-5.22 2.34,-1 6.63,-3.04 9.53,-4.53 2.9,-1.49 7.9,-4.74 11.11,-7.21 3.21,-2.47 6.42,-5.89 7.12,-7.6 0.92,-2.22 1.11,-5.9 0.66,-12.8 -0.35,-5.33 -1.34,-12.39 -2.22,-15.69 -0.87,-3.3 -2.19,-7.8 -2.94,-10 -0.74,-2.2 -2.09,-5.75 -2.99,-7.89 -0.91,-2.13 -3.46,-6.75 -5.67,-10.25 -2.21,-3.5 -6.34,-8.41 -9.18,-10.91 -2.84,-2.5 -8.09,-5.98 -11.66,-7.73 -6.04,-2.96 -7.24,-3.19 -17,-3.2 -9.37,-0.02 -11.13,0.27 -16.34,2.72 -3.21,1.5 -8.61,4.95 -12,7.67 -3.39,2.71 -7.96,7.22 -10.16,10.02 -2.2,2.8 -5.85,8.13 -8.12,11.84 -2.26,3.71 -5.31,10.06 -6.77,14.11 -1.46,4.06 -3.13,9.45 -3.7,12 -0.58,2.54 -1.04,11.5 -1.02,19.91 0.02,8.41 0.52,18.08 1.11,21.5 0.59,3.41 2.44,10.57 4.12,15.91 1.68,5.33 5.33,13.65 8.1,18.5 2.78,4.84 7.04,11.39 9.48,14.56 2.44,3.17 6.76,8.07 9.62,10.9 2.85,2.83 7.88,7.15 11.18,9.6 3.3,2.45 9.13,6.04 12.96,7.97 3.83,1.93 12.16,5.21 18.5,7.28 6.35,2.08 17.16,4.72 24.04,5.87 6.88,1.16 13.85,2.29 15.5,2.52 1.65,0.24 11.33,0.28 21.5,0.1 z m 14.32,-27.86 c 3.75,-0.21 7.33,-0.89 7.95,-1.51 0.84,-0.84 -0.19,-1.13 -4,-1.13 -2.83,0 -8.43,-0.69 -12.44,-1.54 -4.21,-0.88 -11.76,-3.72 -17.82,-6.7 -5.78,-2.84 -10.96,-5.36 -11.51,-5.59 -0.55,-0.24 0.35,1.01 2,2.77 1.65,1.76 5.48,4.62 8.5,6.35 3.02,1.73 8.88,4.18 13,5.44 5.6,1.7 9.23,2.19 14.32,1.91 z m 1,-11.68 c 0.99,0.02 2.68,-0.43 3.75,-1 1.06,-0.56 1.93,-1.54 1.93,-2.17 0,-0.62 -0.74,-1.96 -1.65,-2.96 -0.92,-1.01 -2.93,-1.83 -4.48,-1.83 -1.88,0 -3.35,-0.81 -4.41,-2.42 -0.87,-1.32 -2.33,-2.7 -3.24,-3.05 -1.02,-0.39 -2.17,0.05 -2.95,1.11 -0.7,0.97 -1,2.68 -0.66,3.81 0.35,1.13 1.36,2.9 2.26,3.94 0.9,1.03 2.98,2.48 4.63,3.21 1.65,0.73 3.82,1.34 4.82,1.36 z M 546,336.31 c 1.92,-0.32 3.62,-0.68 3.78,-0.8 0.15,-0.13 -2.14,-0.51 -5.1,-0.86 -2.95,-0.35 -7.8,-1.62 -10.77,-2.82 -2.98,-1.21 -6.65,-3.04 -8.17,-4.08 -1.51,-1.04 -3.5,-1.75 -4.41,-1.57 -0.92,0.18 -1.85,0.89 -2.09,1.59 -0.24,0.74 1.47,2.1 4.16,3.29 2.52,1.11 7.85,2.88 11.84,3.93 4.28,1.12 8.7,1.66 10.76,1.32 z m 51.5,-5.02 c 4.4,-0.23 10.84,-1.06 14.31,-1.85 3.48,-0.79 10.79,-3.3 16.25,-5.56 5.47,-2.27 9.94,-4.68 9.94,-5.36 0,-0.67 -2.59,-3.23 -5.75,-5.68 -3.16,-2.46 -10.65,-7.52 -16.64,-11.25 -5.98,-3.73 -13.86,-7.91 -17.5,-9.29 -5.53,-2.09 -7.84,-2.43 -14.11,-2.06 -6.36,0.37 -8.79,1.09 -16,4.73 -4.67,2.37 -11.2,6.12 -14.5,8.34 -3.3,2.22 -10.73,7.4 -16.5,11.51 -5.77,4.11 -10.69,7.64 -10.92,7.83 -0.23,0.19 -0.21,0.55 0.03,0.79 0.24,0.25 7.18,1.57 15.42,2.94 8.23,1.37 19.24,2.98 24.47,3.58 5.23,0.59 12.65,1.23 16.5,1.42 3.85,0.18 10.6,0.14 15,-0.09 z m -118.43,-2.37 c -1.42,-0.04 -4.47,-0.75 -6.8,-1.57 -2.32,-0.83 -6.49,-3.54 -9.27,-6.04 -2.78,-2.5 -6.14,-6.4 -7.46,-8.68 -1.33,-2.27 -2.95,-7.24 -3.61,-11.04 -0.66,-3.81 -0.96,-10.67 -0.67,-15.27 0.39,-6.25 1.19,-9.71 3.17,-13.76 1.57,-3.21 5.05,-7.64 8.56,-10.89 3.92,-3.63 7.7,-6.09 11.21,-7.28 3.25,-1.1 8.2,-1.79 12.8,-1.79 5.73,0 8.47,0.51 11.63,2.16 2.27,1.19 6.03,4.31 8.35,6.95 2.33,2.63 5.26,6.81 6.51,9.29 1.26,2.48 2.83,6.33 3.5,8.56 1.03,3.46 0.89,5.67 -0.98,15 -1.2,6.02 -3.07,12.96 -4.15,15.44 -1.08,2.48 -3.62,6.23 -5.66,8.34 -2.03,2.11 -5.74,4.88 -8.24,6.16 -2.5,1.28 -7.19,2.81 -10.43,3.41 -3.25,0.6 -7.05,1.05 -8.46,1.01 z m 8.55,-12.97 c 3.97,0.03 9.05,-0.63 11.48,-1.48 2.39,-0.85 5.37,-2.5 6.62,-3.68 1.25,-1.18 2.28,-2.58 2.28,-3.12 0,-0.54 -0.79,-0.29 -1.75,0.55 -0.96,0.85 -3.17,2.26 -4.91,3.14 -1.74,0.88 -5.57,1.88 -8.5,2.23 -3.08,0.36 -7.2,0.12 -9.73,-0.56 -3.06,-0.82 -5.86,-2.7 -9.25,-6.17 -2.67,-2.74 -5.11,-6 -5.42,-7.23 -0.38,-1.53 0.5,-3.88 2.75,-7.36 1.82,-2.8 4.43,-6.99 5.81,-9.3 1.38,-2.31 4.07,-5.28 5.98,-6.59 2.48,-1.69 4.87,-2.38 8.28,-2.38 2.64,0 6.42,0.68 8.39,1.5 1.98,0.82 4.04,1.5 4.58,1.5 0.58,0 0.7,-1.14 0.3,-2.75 -0.38,-1.51 -1.57,-4.18 -2.65,-5.93 -1.07,-1.75 -3.99,-4.16 -6.49,-5.37 -3.32,-1.61 -5.61,-2.05 -8.59,-1.65 -2.31,0.31 -6.25,2.07 -9.18,4.09 -2.82,1.95 -6.44,5.21 -8.05,7.25 -1.62,2.04 -3.97,6.22 -5.23,9.29 -1.6,3.9 -2.3,7.61 -2.32,12.37 -0.01,3.96 0.57,7.93 1.39,9.5 0.78,1.48 2.73,3.95 4.34,5.49 1.62,1.53 5.15,3.65 7.84,4.7 3.13,1.22 7.49,1.93 12.03,1.96 z m 70.63,-3.48 c -3.44,0.34 -6.25,0.26 -6.25,-0.18 0,-0.45 4.54,-2.83 10.1,-5.3 5.55,-2.47 12.19,-5.29 14.75,-6.26 3.62,-1.38 6.75,-1.68 14.15,-1.37 6.54,0.27 11.27,1.07 15.16,2.55 3.11,1.19 6.2,2.82 6.87,3.63 1.04,1.26 0.3,1.46 -5.29,1.46 -3.58,0 -14.77,1.09 -24.87,2.42 -10.11,1.32 -21.18,2.7 -24.62,3.05 z m 70,-36.47 c 0.14,0 3.78,-0.68 8.09,-1.5 4.31,-0.83 8.01,-1.5 8.22,-1.5 0.22,0 1.13,-1.12 2.03,-2.5 1.52,-2.32 1.52,-2.68 0,-5 -1.25,-1.91 -2.5,-2.5 -5.3,-2.5 -3.08,0 -4.42,0.79 -8.47,5 -2.65,2.74 -4.82,5.67 -4.82,6.5 0,0.82 0.11,1.5 0.25,1.5 z m -43.24,-63 c 0.53,0 2.59,-2.14 4.58,-4.75 1.99,-2.61 5.49,-7.68 7.77,-11.25 3.12,-4.89 4.79,-6.57 6.73,-6.8 1.65,-0.19 4.53,0.98 7.97,3.25 2.97,1.95 5.96,3.55 6.65,3.55 0.69,0 1.54,-1.13 1.88,-2.51 0.35,-1.4 -0.12,-4.81 -1.06,-7.69 -0.93,-2.85 -2.97,-7.03 -4.53,-9.3 -1.56,-2.26 -4.71,-5.81 -7,-7.88 -2.3,-2.08 -7.18,-5.71 -10.84,-8.07 -3.66,-2.36 -10.3,-6.12 -14.74,-8.35 -4.45,-2.23 -11.98,-5.18 -16.74,-6.56 -4.76,-1.38 -13.44,-3.26 -19.29,-4.18 -7.02,-1.1 -14.42,-1.53 -21.76,-1.27 -9.05,0.33 -11.92,0.82 -15.38,2.63 -2.34,1.22 -4.25,2.83 -4.25,3.57 0,0.86 1.74,1.59 4.75,1.99 2.61,0.35 9.1,2.14 14.41,3.97 5.31,1.83 13.14,5.5 17.41,8.16 4.27,2.66 10.9,7.79 14.72,11.41 3.83,3.61 8.87,9.04 11.2,12.07 2.33,3.03 6.39,9.56 9.01,14.51 2.63,4.95 5.41,10.01 6.16,11.25 0.76,1.24 1.82,2.25 2.35,2.25 z"
     id="path1"
     style="fill:#ffffff" />
</svg>
